<svg xmlns="http://www.w3.org/2000/svg" viewBox="0 0 512 512">
  <defs>
    <linearGradient id="bg" x1="0" y1="0" x2="1" y2="1">
      <stop offset="0%" stop-color="#1c1c28"/>
      <stop offset="100%" stop-color="#0c0c14"/>
    </linearGradient>
  </defs>
  <rect width="512" height="512" fill="url(#bg)"/>
  <rect x="168" y="108" width="196" height="248" rx="12" fill="#f5f0e8" opacity="0.08"/>
  <rect x="168" y="108" width="196" height="248" rx="12" fill="none" stroke="#f5f0e8" stroke-width="14"/>
  <path d="M 304,108 L 304,158 L 364,158" fill="none" stroke="#f5f0e8" stroke-width="14" stroke-linejoin="round"/>
  <rect x="168" y="198" width="196" height="6"  rx="3" fill="#f5f0e8"/>
  <rect x="168" y="188" width="196" height="26" rx="4" fill="#f5f0e8" opacity="0.14"/>
  <rect x="196" y="145" width="88"  height="8"  rx="4" fill="#f5f0e8" opacity="0.45"/>
  <rect x="196" y="162" width="66"  height="8"  rx="4" fill="#f5f0e8" opacity="0.45"/>
  <rect x="196" y="240" width="108" height="8"  rx="4" fill="#f5f0e8" opacity="0.35"/>
  <rect x="196" y="258" width="80"  height="8"  rx="4" fill="#f5f0e8" opacity="0.35"/>
  <rect x="196" y="276" width="96"  height="8"  rx="4" fill="#f5f0e8" opacity="0.35"/>
  <rect x="196" y="302" width="60"  height="8"  rx="4" fill="#f5f0e8" opacity="0.2"/>
</svg>
